<?xml version="1.0" encoding="UTF-8" standalone="no"?>
<svg
   xmlns:dc="http://purl.org/dc/elements/1.1/"
   xmlns:cc="http://creativecommons.org/ns#"
   xmlns:rdf="http://www.w3.org/1999/02/22-rdf-syntax-ns#"
   xmlns:svg="http://www.w3.org/2000/svg"
   xmlns="http://www.w3.org/2000/svg"
   xmlns:sodipodi="http://sodipodi.sourceforge.net/DTD/sodipodi-0.dtd"
   xmlns:inkscape="http://www.inkscape.org/namespaces/inkscape"
   height="512"
   viewBox="-120 0 630.76562 511.99834"
   width="632"
   version="1.1"
   id="svg933"
   sodipodi:docname="owl2.svg"
   inkscape:version="0.92.3 (2405546, 2018-03-11)">
  <metadata
     id="metadata939">
    <rdf:RDF>
      <cc:Work
         rdf:about="">
        <dc:format>image/svg+xml</dc:format>
        <dc:type
           rdf:resource="http://purl.org/dc/dcmitype/StillImage" />
        <dc:title></dc:title>
      </cc:Work>
    </rdf:RDF>
  </metadata>
  <defs
     id="defs937" />
  <sodipodi:namedview
     pagecolor="#ffffff"
     bordercolor="#666666"
     borderopacity="1"
     objecttolerance="10"
     gridtolerance="10"
     guidetolerance="10"
     inkscape:pageopacity="0"
     inkscape:pageshadow="2"
     inkscape:window-width="2560"
     inkscape:window-height="1376"
     id="namedview935"
     showgrid="false"
     fit-margin-left="120"
     viewbox-x="-120"
     inkscape:zoom="1.6338034"
     inkscape:cx="109.61597"
     inkscape:cy="206.76987"
     inkscape:window-x="0"
     inkscape:window-y="27"
     inkscape:window-maximized="1"
     inkscape:current-layer="svg933" />
  <path
     d="m 341.66797,257.84375 c 1.60937,-21.28125 2.91015,-44.37891 3.86328,-68.80078 11.35937,-14.78125 18.12109,-33.27344 18.12109,-53.3125 0,-18.91016 -6.01562,-36.441408 -16.23828,-50.781251 0.11719,-0.523438 0.1875,-1.070313 0.1875,-1.632813 0.0117,-3.867187 0.0195,-75.847656 0.0195,-75.847656 0,-6.34375 -7.75781,-9.84375 -12.50781,-5.617188 l -52.27734,46.464844 c -2.26563,-0.175781 -4.55078,-0.265625 -6.86328,-0.265625 -18.89454,0 -36.41407,6.007813 -50.74219,16.214844 -0.52735,-0.117187 -1.07031,-0.183594 -1.63281,-0.183594 h -54.77735 c -0.77344,0 -1.51953,0.117188 -2.21875,0.335938 -14.37109,-10.300781 -31.96875,-16.367188 -50.95703,-16.367188 -2.32422,0 -4.63281,0.09375 -6.91406,0.269531 -0.16797,-0.183593 -0.35156,-0.363281 -0.54297,-0.535156 L 56.507812,1.851562 C 51.753906,-2.375 44,1.121094 44,7.464844 c 0,0 0.0039,71.980468 0.01953,75.847656 0,0.5625 0.06641,1.109375 0.1875,1.636719 -10.222655,14.339843 -16.23828,31.871091 -16.23828,50.781251 0,20.03906 6.761719,38.52734 18.121094,53.3125 0.949218,24.41015 2.25,47.51562 3.863281,68.80078 -20.484375,4.5 -35.816406,18.38281 -43.671875,39.82812 -8.984375,24.53125 -7.457031,56.9336 4.300781,91.24219 12.675781,36.98828 36.082031,73.2461 67.6875,104.85156 3.925781,3.92969 10.847657,2.20704 12.488281,-3.08593 0.0625,-0.20313 3.160157,-10.23828 7.195313,-25.91797 16.980465,25.55078 35.871095,34.1875 52.839845,41.92969 3.33984,1.52734 6.49609,2.96484 9.59375,4.51171 1.04297,0.52344 2.1914,0.79688 3.35937,0.79688 h 64.13282 c 1.16406,0 2.3164,-0.27344 3.35937,-0.79688 3.09375,-1.54687 6.25,-2.98437 9.58984,-4.51171 16.97266,-7.7461 35.86329,-16.375 52.83985,-41.92579 4.03906,15.67579 7.13281,25.71094 7.19531,25.91407 1.64453,5.29297 8.5625,7.01562 12.49219,3.08593 31.60547,-31.60546 55.00781,-67.86328 67.6875,-104.85156 11.7539,-34.30859 13.28125,-66.71094 4.29687,-91.24219 -7.85547,-21.44531 -23.1875,-35.32421 -43.67187,-39.82812 z M 332.58984,24.203125 V 68.839844 C 323.59375,61.210938 313.04687,55.363281 301.49609,51.84375 Z M 348.625,135.73047 c 0,40.05859 -32.58984,72.64844 -72.65234,72.64844 -40.0586,0 -72.64844,-32.58985 -72.64844,-72.64844 0,-40.058595 32.58984,-72.648439 72.64844,-72.648439 40.0625,0 72.65234,32.589844 72.65234,72.648439 z m -132.05469,64.42578 -20.76172,45.67578 -20.75781,-45.67578 c 8.75391,-8.07422 15.85938,-17.90625 20.75781,-28.92969 4.90235,11.02344 12.01172,20.85547 20.76172,28.92969 z m -20.76172,-99.92187 c -3.41406,-7.683599 -7.90234,-14.785161 -13.26953,-21.121099 h 26.54297 c -5.36719,6.335938 -9.85547,13.4375 -13.27344,21.121099 z M 90.125,51.84375 C 78.574219,55.363281 68.027344,61.210938 59.03125,68.835938 V 24.203125 Z m 25.51953,11.238281 c 40.0625,0 72.65234,32.589844 72.65234,72.648439 0,40.05859 -32.58984,72.64844 -72.65234,72.64844 -40.058592,0 -72.648436,-32.58985 -72.648436,-72.64844 0,-40.058595 32.59375,-72.648439 72.648436,-72.648439 z M 80.027344,473.89844 C 22.546875,411.47266 6.207031,341.58203 20.394531,302.84375 c 4.835938,-13.19922 15.65625,-29.35156 39.761719,-31.36328 12.496094,-1.04297 21.832031,2.50781 28.527344,10.84766 27.683596,34.46875 5.691406,140.39843 -8.65625,191.57031 z M 267.45703,472.8125 v -11.91797 c 0,-4.14844 -3.36328,-7.51562 -7.51562,-7.51562 -4.14844,0 -7.51563,3.36718 -7.51563,7.51562 v 23.16016 c -5.9414,3.53125 -11.92187,6.26562 -17.83984,8.96484 -2.78125,1.26953 -5.64453,2.57813 -8.46094,3.94922 h -60.62891 c -2.8164,-1.37109 -5.67968,-2.67969 -8.46093,-3.94922 -5.91797,-2.69922 -11.89844,-5.43359 -17.83985,-8.96484 v -67.75 c 0,-56.76172 25.92578,-104.71485 56.61719,-104.71485 30.6875,0 56.61328,47.95313 56.61328,104.71485 v 8.01562 c 0,4.14844 3.36719,7.51563 7.51563,7.51563 4.15234,0 7.51562,-3.36719 7.51562,-7.51563 v -8.01562 c 0,-31.26563 -7.01953,-60.77344 -19.77344,-83.08985 -13.50781,-23.63671 -31.92968,-36.65625 -51.87109,-36.65625 -19.94531,0 -38.36719,13.01954 -51.875,36.65625 -12.75,22.31641 -19.77344,51.82422 -19.77344,83.08985 v 56.50781 c -7.30078,-6.86328 -14.39843,-16.05078 -21.09375,-29.07422 2.84766,-12.44531 5.74219,-26.52344 8.14063,-41.13672 10.51562,-64.02734 6.8789,-107.66015 -10.80469,-129.68359 -8.765625,-10.92188 -20.691406,-16.49219 -35.496094,-16.63281 -1.21875,-16.14453 -2.257812,-33.35547 -3.097656,-51.39844 14.867188,11.60156 33.558594,18.51953 53.83594,18.51953 17.35547,0 33.55469,-5.07031 47.18359,-13.80859 l 26.13672,57.5039 c 2.61719,5.75391 11.07031,5.75391 13.68359,0 l 26.13672,-57.5039 c 13.63282,8.73828 29.82813,13.80859 47.1875,13.80859 20.27344,0 38.96094,-6.91797 53.83203,-18.51953 -0.83984,18.04687 -1.875,35.25391 -3.09375,51.39453 -14.80468,0.14453 -26.73046,5.71484 -35.5,16.63672 -17.67968,22.02344 -21.3164,65.65625 -10.80078,129.67969 2.39844,14.61328 5.29297,28.6914 8.14063,41.13672 -6.69531,13.02734 -13.79688,22.21093 -21.09766,29.07812 z m 44.13281,1.08594 c -14.35156,-51.16016 -36.35156,-157.07422 -8.65625,-191.56641 5.94141,-7.39844 13.95313,-11.02734 24.40625,-11.02734 1.33594,0 2.71094,0.0586 4.125,0.17578 24.10547,2.00781 34.92578,18.16406 39.76172,31.36328 14.19141,38.73828 -2.15625,108.62891 -59.63672,171.05469 z m 0,0"
     id="path897"
     style="fill:#fdffff;fill-opacity:1"
     inkscape:connector-curvature="0" />
  <path
     d="m 319.46484,296.55859 c -4.15234,0 -7.51562,3.36719 -7.51562,7.51563 v 16.03515 c 0,4.14844 3.36328,7.51172 7.51562,7.51172 4.14844,0 7.51563,-3.36328 7.51563,-7.51172 v -16.03515 c 0,-4.15235 -3.36719,-7.51563 -7.51563,-7.51563 z m 0,0"
     id="path899"
     style="fill:#fdffff;fill-opacity:1"
     inkscape:connector-curvature="0" />
  <path
     d="m 351.52734,312.59375 c -4.14843,0 -7.51172,3.36328 -7.51172,7.51562 v 8.01563 c 0,4.14844 3.36329,7.51562 7.51172,7.51562 4.15235,0 7.51563,-3.36718 7.51563,-7.51562 v -8.01563 c 0,-4.15234 -3.36328,-7.51562 -7.51563,-7.51562 z m 0,0"
     id="path901"
     style="fill:#fdffff;fill-opacity:1"
     inkscape:connector-curvature="0" />
  <path
     d="m 335.49609,344.65625 c -4.14843,0 -7.51562,3.36719 -7.51562,7.51562 v 16.03516 c 0,4.14844 3.36719,7.51563 7.51562,7.51563 4.15235,0 7.51563,-3.36719 7.51563,-7.51563 v -16.03516 c 0,-4.14843 -3.36328,-7.51562 -7.51563,-7.51562 z m 0,0"
     id="path903"
     style="fill:#fdffff;fill-opacity:1"
     inkscape:connector-curvature="0" />
  <path
     d="m 311.44531,368.70703 c -4.14844,0 -7.51172,3.36328 -7.51172,7.51563 v 24.05078 c 0,4.14843 3.36328,7.51172 7.51172,7.51172 4.15235,0 7.51563,-3.36329 7.51563,-7.51172 v -24.05078 c 0,-4.15235 -3.36328,-7.51563 -7.51563,-7.51563 z m 0,0"
     id="path905"
     style="fill:#fdffff;fill-opacity:1"
     inkscape:connector-curvature="0" />
  <path
     d="m 335.49609,400.77344 c -4.14843,0 -7.51562,3.36328 -7.51562,7.51562 v 16.03125 c 0,4.15235 3.36719,7.51563 7.51562,7.51563 4.15235,0 7.51563,-3.36328 7.51563,-7.51563 v -16.03125 c 0,-4.15234 -3.36328,-7.51562 -7.51563,-7.51562 z m 0,0"
     id="path907"
     style="fill:#fdffff;fill-opacity:1"
     inkscape:connector-curvature="0" />
  <path
     d="m 78.46875,312.08984 v -16.03125 c 0,-4.15234 -3.363281,-7.51562 -7.515625,-7.51562 -4.148437,0 -7.515625,3.36328 -7.515625,7.51562 v 16.03125 c 0,4.15235 3.367188,7.51563 7.515625,7.51563 4.152344,0 7.515625,-3.36328 7.515625,-7.51563 z m 0,0"
     id="path909"
     style="fill:#fdffff;fill-opacity:1"
     inkscape:connector-curvature="0" />
  <path
     d="m 38.890625,304.57422 c -4.152344,0 -7.515625,3.36719 -7.515625,7.51562 v 8.01953 c 0,4.14844 3.363281,7.51172 7.515625,7.51172 4.148437,0 7.515625,-3.36328 7.515625,-7.51172 v -8.01953 c 0,-4.14843 -3.367188,-7.51562 -7.515625,-7.51562 z m 0,0"
     id="path911"
     style="fill:#fdffff;fill-opacity:1"
     inkscape:connector-curvature="0" />
  <path
     d="m 62.4375,368.20703 v -24.05078 c 0,-4.14844 -3.363281,-7.51563 -7.515625,-7.51563 -4.148437,0 -7.515625,3.36719 -7.515625,7.51563 v 24.05078 c 0,4.14844 3.367188,7.51563 7.515625,7.51563 4.152344,0 7.515625,-3.36719 7.515625,-7.51563 z m 0,0"
     id="path913"
     style="fill:#fdffff;fill-opacity:1"
     inkscape:connector-curvature="0" />
  <path
     d="m 78.972656,352.67578 c -4.152344,0 -7.515625,3.36328 -7.515625,7.51563 v 16.03125 c 0,4.14843 3.363281,7.51562 7.515625,7.51562 4.148438,0 7.515625,-3.36719 7.515625,-7.51562 v -16.03125 c 0,-4.15235 -3.367187,-7.51563 -7.515625,-7.51563 z m 0,0"
     id="path915"
     style="fill:#fdffff;fill-opacity:1"
     inkscape:connector-curvature="0" />
  <path
     d="m 62.9375,400.77344 c -4.148438,0 -7.515625,3.36328 -7.515625,7.51562 v 8.01563 c 0,4.14843 3.367187,7.51562 7.515625,7.51562 4.152344,0 7.515625,-3.36719 7.515625,-7.51562 v -8.01563 c 0,-4.15234 -3.363281,-7.51562 -7.515625,-7.51562 z m 0,0"
     id="path917"
     style="fill:#fdffff;fill-opacity:1"
     inkscape:connector-curvature="0" />
  <path
     d="m 115.64453,191.34375 c 30.66797,0 55.61719,-24.94922 55.61719,-55.61328 0,-30.66797 -24.94922,-55.613282 -55.61719,-55.613282 -30.664061,0 -55.61328,24.945312 -55.61328,55.613282 0,30.66406 24.949219,55.61328 55.61328,55.61328 z m 0,-96.195312 c 22.37891,0 40.58594,18.203122 40.58594,40.582032 0,22.3789 -18.20703,40.58203 -40.58594,40.58203 -22.374999,0 -40.58203,-18.20313 -40.58203,-40.58203 0,-22.37891 18.207031,-40.582032 40.58203,-40.582032 z m 0,0"
     id="path919"
     style="fill:#fdffff;fill-opacity:1"
     inkscape:connector-curvature="0" />
  <path
     d="m 99.613281,143.24609 h 32.066409 c 4.14843,0 7.51562,-3.36718 7.51562,-7.51562 0,-4.15235 -3.36719,-7.51563 -7.51562,-7.51563 H 99.613281 c -4.148437,0 -7.515625,3.36328 -7.515625,7.51563 0,4.14844 3.367188,7.51562 7.515625,7.51562 z m 0,0"
     id="path921"
     style="fill:#fdffff;fill-opacity:1"
     inkscape:connector-curvature="0" />
  <path
     d="m 275.97266,191.34375 c 30.66796,0 55.61718,-24.94922 55.61718,-55.61328 0,-30.66797 -24.94922,-55.613282 -55.61718,-55.613282 -30.66407,0 -55.61329,24.945312 -55.61329,55.613282 0,30.66406 24.94922,55.61328 55.61329,55.61328 z m 0,-96.195312 c 22.3789,0 40.58593,18.203122 40.58593,40.582032 0,22.3789 -18.20703,40.58203 -40.58593,40.58203 -22.375,0 -40.58204,-18.20313 -40.58204,-40.58203 0,-22.37891 18.20704,-40.582032 40.58204,-40.582032 z m 0,0"
     id="path923"
     style="fill:#fdffff;fill-opacity:1"
     inkscape:connector-curvature="0" />
  <path
     d="m 259.94141,143.24609 h 32.0664 c 4.14844,0 7.51563,-3.36718 7.51563,-7.51562 0,-4.15235 -3.36719,-7.51563 -7.51563,-7.51563 h -32.0664 c -4.14844,0 -7.51563,3.36328 -7.51563,7.51563 0,4.14844 3.36719,7.51562 7.51563,7.51562 z m 0,0"
     id="path925"
     style="fill:#fdffff;fill-opacity:1"
     inkscape:connector-curvature="0" />
  <path
     d="m 391.60937,232.42969 h -16.42968 l 22.30078,-27.875 c 3.86328,-4.82813 0.29687,-12.20703 -5.8711,-12.20703 h -32.0625 c -4.15234,0 -7.51562,3.36328 -7.51562,7.51562 0,4.14844 3.36328,7.51172 7.51562,7.51172 h 16.42969 l -22.30078,27.875 c -3.86328,4.82812 -0.29297,12.20703 5.87109,12.20703 h 32.0625 c 4.15235,0 7.51563,-3.36328 7.51563,-7.51172 0,-4.15234 -3.36328,-7.51562 -7.51563,-7.51562 z m 0,0"
     id="path927"
     style="fill:#fdffff;fill-opacity:1"
     inkscape:connector-curvature="0" />
  <path
     d="m 447.72656,200.36328 h -16.42969 l 22.29688,-27.87109 c 3.86328,-4.83203 0.29687,-12.21094 -5.86719,-12.21094 h -32.0664 c -4.14844,0 -7.51563,3.36328 -7.51563,7.51562 0,4.14844 3.36719,7.51563 7.51563,7.51563 h 16.42968 l -22.29687,27.87109 c -3.86719,4.82813 -0.29688,12.21094 5.86719,12.21094 h 32.0664 c 4.14844,0 7.51563,-3.36719 7.51563,-7.51562 0,-4.15235 -3.36719,-7.51563 -7.51563,-7.51563 z m 0,0"
     id="path929"
     style="fill:#fdffff;fill-opacity:1"
     inkscape:connector-curvature="0" />
  <path
     d="m 503.83984,168.29687 h -16.42968 l 22.29687,-27.87109 c 3.86719,-4.83203 0.29688,-12.21094 -5.86719,-12.21094 h -32.0664 c -4.14844,0 -7.51172,3.36328 -7.51172,7.51563 0,4.14844 3.36328,7.51562 7.51172,7.51562 h 16.42969 l -22.29688,27.8711 c -3.86328,4.83203 -0.29687,12.21093 5.86719,12.21093 h 32.0664 c 4.15235,0 7.51563,-3.36718 7.51563,-7.51562 0,-4.15234 -3.36328,-7.51563 -7.51563,-7.51563 z m 0,0"
     id="path931"
     style="fill:#fdffff;fill-opacity:1"
     inkscape:connector-curvature="0" />
</svg>
